<mxfile host="app.diagrams.net" agent="Mozilla/5.0 (Macintosh; Intel Mac OS X 10_15_7) AppleWebKit/537.36 (KHTML, like Gecko) Chrome/138.0.0.0 Safari/537.36" version="28.0.7">
  <diagram name="AI Workflow - What&#39;s New Processing" id="t-iDTg4Zb8wAfP9zAQ6o">
    <mxGraphModel dx="1018" dy="655" grid="1" gridSize="10" guides="1" tooltips="1" connect="1" arrows="1" fold="1" page="1" pageScale="1" pageWidth="850" pageHeight="1100" math="0" shadow="0">
      <root>
        <mxCell id="0" />
        <mxCell id="1" parent="0" />
        <mxCell id="start" value="Start" style="ellipse;whiteSpace=wrap;html=1;fillColor=#D5E8D4;strokeColor=#82B366;" vertex="1" parent="1">
          <mxGeometry x="100" y="60" width="100" height="60" as="geometry" />
        </mxCell>
        <mxCell id="agentA" value="AI Agent A visits &#xa;What&#39;s New page" style="rounded=1;whiteSpace=wrap;html=1;fillColor=#DAE8FC;strokeColor=#6C8EBF;" vertex="1" parent="1">
          <mxGeometry x="100" y="150" width="160" height="60" as="geometry" />
        </mxCell>
        <mxCell id="loop" value="For each feature on page" style="rhombus;whiteSpace=wrap;html=1;fillColor=#FFF2CC;strokeColor=#D6B656;" vertex="1" parent="1">
          <mxGeometry x="100" y="240" width="140" height="70" as="geometry" />
        </mxCell>
        <mxCell id="agentB" value="AI Agent B opens feature detail &#xa;and extracts data" style="rounded=1;whiteSpace=wrap;html=1;fillColor=#E1D5E7;strokeColor=#9673A6;" vertex="1" parent="1">
          <mxGeometry x="100" y="340" width="200" height="60" as="geometry" />
        </mxCell>
        <mxCell id="check" value="Create check in &#xa;Service Execution Engine (SEE)" style="rounded=1;whiteSpace=wrap;html=1;fillColor=#F8CECC;strokeColor=#B85450;" vertex="1" parent="1">
          <mxGeometry x="100" y="430" width="220" height="60" as="geometry" />
        </mxCell>
        <mxCell id="end" value="End" style="ellipse;whiteSpace=wrap;html=1;fillColor=#E2EFDA;strokeColor=#6AA84F;" vertex="1" parent="1">
          <mxGeometry x="100" y="520" width="100" height="60" as="geometry" />
        </mxCell>
        <mxCell id="edge1" style="endArrow=block;html=1;" edge="1" parent="1" source="start" target="agentA">
          <mxGeometry relative="1" as="geometry" />
        </mxCell>
        <mxCell id="edge2" style="endArrow=block;html=1;" edge="1" parent="1" source="agentA" target="loop">
          <mxGeometry relative="1" as="geometry" />
        </mxCell>
        <mxCell id="edge3" style="endArrow=block;html=1;" edge="1" parent="1" source="loop" target="agentB">
          <mxGeometry relative="1" as="geometry" />
        </mxCell>
        <mxCell id="edge4" style="endArrow=block;html=1;" edge="1" parent="1" source="agentB" target="check">
          <mxGeometry relative="1" as="geometry" />
        </mxCell>
        <mxCell id="edge5" style="endArrow=block;html=1;" edge="1" parent="1" source="check" target="end">
          <mxGeometry relative="1" as="geometry" />
        </mxCell>
      </root>
    </mxGraphModel>
  </diagram>
</mxfile>
